<mxfile host="Electron" modified="2024-11-07T07:07:54.667Z" agent="Mozilla/5.0 (Windows NT 10.0; Win64; x64) AppleWebKit/537.36 (KHTML, like Gecko) draw.io/24.4.0 Chrome/120.0.6099.109 Electron/28.1.0 Safari/537.36" etag="dFE7RSGtOC2p2xVPGLnw" version="24.4.0" type="device">
  <diagram name="Page-1" id="oLx8PSXtBinwXs66SALR">
    <mxGraphModel dx="1100" dy="665" grid="1" gridSize="10" guides="1" tooltips="1" connect="1" arrows="1" fold="1" page="1" pageScale="1" pageWidth="1100" pageHeight="850" math="0" shadow="0">
      <root>
        <mxCell id="0" />
        <mxCell id="1" parent="0" />
        <mxCell id="1j-_imQ27UeOxcc21rLw-4" value="1.0" style="swimlane;fontStyle=0;childLayout=stackLayout;horizontal=1;startSize=30;fillColor=#ffffff;horizontalStack=0;resizeParent=1;resizeParentMax=0;resizeLast=0;collapsible=0;marginBottom=0;swimlaneFillColor=#ffffff;absoluteArcSize=1;arcSize=15;rounded=1;" parent="1" vertex="1">
          <mxGeometry x="465" y="30" width="165" height="90" as="geometry" />
        </mxCell>
        <mxCell id="1j-_imQ27UeOxcc21rLw-5" value="Display Admin Dashboard" style="text;html=1;align=center;verticalAlign=middle;whiteSpace=wrap;rounded=0;" parent="1j-_imQ27UeOxcc21rLw-4" vertex="1">
          <mxGeometry y="30" width="165" height="60" as="geometry" />
        </mxCell>
        <mxCell id="1j-_imQ27UeOxcc21rLw-6" value="2.0" style="swimlane;fontStyle=0;childLayout=stackLayout;horizontal=1;startSize=30;fillColor=#ffffff;horizontalStack=0;resizeParent=1;resizeParentMax=0;resizeLast=0;collapsible=0;marginBottom=0;swimlaneFillColor=#ffffff;absoluteArcSize=1;arcSize=15;rounded=1;" parent="1" vertex="1">
          <mxGeometry x="320" y="180" width="100" height="90" as="geometry" />
        </mxCell>
        <mxCell id="1j-_imQ27UeOxcc21rLw-7" value="Add/Update&amp;nbsp;&lt;div&gt;Employee&lt;br&gt;Profile, and RFID&lt;/div&gt;" style="text;html=1;align=center;verticalAlign=middle;whiteSpace=wrap;rounded=0;" parent="1j-_imQ27UeOxcc21rLw-6" vertex="1">
          <mxGeometry y="30" width="100" height="60" as="geometry" />
        </mxCell>
        <mxCell id="1j-_imQ27UeOxcc21rLw-9" value="&lt;font style=&quot;font-size: 10px;&quot;&gt;Employee Info&lt;/font&gt;" style="text;html=1;align=center;verticalAlign=middle;whiteSpace=wrap;rounded=0;" parent="1" vertex="1">
          <mxGeometry x="351" y="149" width="95" height="20" as="geometry" />
        </mxCell>
        <mxCell id="1j-_imQ27UeOxcc21rLw-10" value="" style="html=1;dashed=0;whiteSpace=wrap;shape=mxgraph.dfd.dataStoreID;align=left;spacingLeft=3;points=[[0,0],[0.5,0],[1,0],[0,0.5],[1,0.5],[0,1],[0.5,1],[1,1]];" parent="1" vertex="1">
          <mxGeometry x="390" y="310" width="100" height="30" as="geometry" />
        </mxCell>
        <mxCell id="1j-_imQ27UeOxcc21rLw-91" style="edgeStyle=orthogonalEdgeStyle;rounded=0;orthogonalLoop=1;jettySize=auto;html=1;exitX=0.75;exitY=0;exitDx=0;exitDy=0;entryX=0;entryY=0.25;entryDx=0;entryDy=0;" parent="1" source="1j-_imQ27UeOxcc21rLw-11" target="1j-_imQ27UeOxcc21rLw-64" edge="1">
          <mxGeometry relative="1" as="geometry" />
        </mxCell>
        <mxCell id="1j-_imQ27UeOxcc21rLw-126" style="edgeStyle=orthogonalEdgeStyle;rounded=0;orthogonalLoop=1;jettySize=auto;html=1;exitX=0.75;exitY=1;exitDx=0;exitDy=0;entryX=1.002;entryY=0.153;entryDx=0;entryDy=0;entryPerimeter=0;" parent="1" source="1j-_imQ27UeOxcc21rLw-11" target="1j-_imQ27UeOxcc21rLw-117" edge="1">
          <mxGeometry relative="1" as="geometry">
            <mxPoint x="470" y="490" as="targetPoint" />
            <Array as="points">
              <mxPoint x="473" y="370" />
              <mxPoint x="473" y="489" />
            </Array>
          </mxGeometry>
        </mxCell>
        <mxCell id="1j-_imQ27UeOxcc21rLw-136" style="edgeStyle=orthogonalEdgeStyle;rounded=0;orthogonalLoop=1;jettySize=auto;html=1;exitX=1;exitY=0.75;exitDx=0;exitDy=0;entryX=1;entryY=0.25;entryDx=0;entryDy=0;jumpStyle=arc;" parent="1" source="1j-_imQ27UeOxcc21rLw-11" target="1j-_imQ27UeOxcc21rLw-133" edge="1">
          <mxGeometry relative="1" as="geometry">
            <Array as="points">
              <mxPoint x="520" y="332" />
              <mxPoint x="520" y="592" />
            </Array>
          </mxGeometry>
        </mxCell>
        <mxCell id="1j-_imQ27UeOxcc21rLw-227" style="edgeStyle=orthogonalEdgeStyle;rounded=0;orthogonalLoop=1;jettySize=auto;html=1;exitX=0.25;exitY=0;exitDx=0;exitDy=0;entryX=0;entryY=0.25;entryDx=0;entryDy=0;jumpStyle=none;" parent="1" source="1j-_imQ27UeOxcc21rLw-11" target="1j-_imQ27UeOxcc21rLw-5" edge="1">
          <mxGeometry relative="1" as="geometry" />
        </mxCell>
        <mxCell id="1j-_imQ27UeOxcc21rLw-11" value="Employee" style="text;html=1;align=left;verticalAlign=middle;whiteSpace=wrap;rounded=0;" parent="1" vertex="1">
          <mxGeometry x="420" y="310" width="70" height="30" as="geometry" />
        </mxCell>
        <mxCell id="1j-_imQ27UeOxcc21rLw-14" value="&lt;font style=&quot;font-size: 10px;&quot;&gt;Employee Profile&lt;/font&gt;" style="text;html=1;align=center;verticalAlign=middle;whiteSpace=wrap;rounded=0;" parent="1" vertex="1">
          <mxGeometry x="370" y="270" width="50" height="50" as="geometry" />
        </mxCell>
        <mxCell id="1j-_imQ27UeOxcc21rLw-23" value="" style="html=1;dashed=0;whiteSpace=wrap;shape=mxgraph.dfd.dataStoreID;align=left;spacingLeft=3;points=[[0,0],[0.5,0],[1,0],[0,0.5],[1,0.5],[0,1],[0.5,1],[1,1]];" parent="1" vertex="1">
          <mxGeometry x="180" y="410" width="100" height="30" as="geometry" />
        </mxCell>
        <mxCell id="1j-_imQ27UeOxcc21rLw-24" value="RFID" style="text;html=1;align=left;verticalAlign=middle;whiteSpace=wrap;rounded=0;" parent="1" vertex="1">
          <mxGeometry x="210" y="410" width="70" height="30" as="geometry" />
        </mxCell>
        <mxCell id="1j-_imQ27UeOxcc21rLw-26" value="&lt;font style=&quot;font-size: 10px;&quot;&gt;Employee RFID&lt;/font&gt;" style="text;html=1;align=center;verticalAlign=middle;whiteSpace=wrap;rounded=0;" parent="1" vertex="1">
          <mxGeometry x="220" y="207" width="100" height="21" as="geometry" />
        </mxCell>
        <mxCell id="1j-_imQ27UeOxcc21rLw-60" style="edgeStyle=orthogonalEdgeStyle;rounded=0;orthogonalLoop=1;jettySize=auto;html=1;exitX=0.091;exitY=1;exitDx=0;exitDy=0;exitPerimeter=0;jumpStyle=arc;jumpSize=16;" parent="1" source="1j-_imQ27UeOxcc21rLw-5" target="1j-_imQ27UeOxcc21rLw-6" edge="1">
          <mxGeometry relative="1" as="geometry">
            <mxPoint x="360" y="180" as="targetPoint" />
            <Array as="points">
              <mxPoint x="480" y="150" />
              <mxPoint x="360" y="150" />
            </Array>
          </mxGeometry>
        </mxCell>
        <mxCell id="1j-_imQ27UeOxcc21rLw-63" value="4.0" style="swimlane;fontStyle=0;childLayout=stackLayout;horizontal=1;startSize=30;fillColor=#ffffff;horizontalStack=0;resizeParent=1;resizeParentMax=0;resizeLast=0;collapsible=0;marginBottom=0;swimlaneFillColor=#ffffff;absoluteArcSize=1;arcSize=15;rounded=1;" parent="1" vertex="1">
          <mxGeometry x="650" y="180" width="120" height="90" as="geometry" />
        </mxCell>
        <mxCell id="1j-_imQ27UeOxcc21rLw-64" value="Add/Update&amp;nbsp;&lt;div&gt;Employee&lt;br&gt;Job Details&lt;/div&gt;" style="text;html=1;align=center;verticalAlign=middle;whiteSpace=wrap;rounded=0;" parent="1j-_imQ27UeOxcc21rLw-63" vertex="1">
          <mxGeometry y="30" width="120" height="60" as="geometry" />
        </mxCell>
        <mxCell id="1j-_imQ27UeOxcc21rLw-65" value="&lt;font style=&quot;font-size: 10px;&quot;&gt;Employee Job and Salary&lt;/font&gt;&lt;div style=&quot;font-size: 10px;&quot;&gt;&lt;font style=&quot;font-size: 10px;&quot;&gt;Info&lt;/font&gt;&lt;/div&gt;" style="text;html=1;align=center;verticalAlign=middle;whiteSpace=wrap;rounded=0;" parent="1" vertex="1">
          <mxGeometry x="650" y="115" width="50" height="70" as="geometry" />
        </mxCell>
        <mxCell id="1j-_imQ27UeOxcc21rLw-66" value="" style="html=1;dashed=0;whiteSpace=wrap;shape=mxgraph.dfd.dataStoreID;align=left;spacingLeft=3;points=[[0,0],[0.5,0],[1,0],[0,0.5],[1,0.5],[0,1],[0.5,1],[1,1]];" parent="1" vertex="1">
          <mxGeometry x="860" y="200" width="100" height="30" as="geometry" />
        </mxCell>
        <mxCell id="1j-_imQ27UeOxcc21rLw-67" value="Job" style="text;html=1;align=left;verticalAlign=middle;whiteSpace=wrap;rounded=0;" parent="1" vertex="1">
          <mxGeometry x="890" y="200" width="70" height="30" as="geometry" />
        </mxCell>
        <mxCell id="1j-_imQ27UeOxcc21rLw-72" value="&lt;font style=&quot;font-size: 10px;&quot;&gt;Employee Job&amp;nbsp;&lt;/font&gt;&lt;div style=&quot;font-size: 10px;&quot;&gt;&lt;font style=&quot;font-size: 10px;&quot;&gt;Details&lt;/font&gt;&lt;/div&gt;" style="text;html=1;align=center;verticalAlign=middle;whiteSpace=wrap;rounded=0;" parent="1" vertex="1">
          <mxGeometry x="765" y="207.5" width="100" height="35" as="geometry" />
        </mxCell>
        <mxCell id="1j-_imQ27UeOxcc21rLw-74" value="5.0" style="swimlane;fontStyle=0;childLayout=stackLayout;horizontal=1;startSize=30;fillColor=#ffffff;horizontalStack=0;resizeParent=1;resizeParentMax=0;resizeLast=0;collapsible=0;marginBottom=0;swimlaneFillColor=#ffffff;absoluteArcSize=1;arcSize=15;rounded=1;" parent="1" vertex="1">
          <mxGeometry x="645" y="335" width="130" height="90" as="geometry" />
        </mxCell>
        <mxCell id="1j-_imQ27UeOxcc21rLw-75" value="Add/Update&amp;nbsp;&lt;div&gt;Employee&lt;br&gt;Schedule&lt;/div&gt;" style="text;html=1;align=center;verticalAlign=middle;whiteSpace=wrap;rounded=0;" parent="1j-_imQ27UeOxcc21rLw-74" vertex="1">
          <mxGeometry y="30" width="130" height="60" as="geometry" />
        </mxCell>
        <mxCell id="1j-_imQ27UeOxcc21rLw-76" value="&lt;font style=&quot;font-size: 11px;&quot;&gt;Employee Schedule&lt;/font&gt;&lt;div style=&quot;font-size: 11px;&quot;&gt;&lt;font style=&quot;font-size: 11px;&quot;&gt;Info&lt;/font&gt;&lt;/div&gt;" style="text;html=1;align=center;verticalAlign=middle;whiteSpace=wrap;rounded=0;" parent="1" vertex="1">
          <mxGeometry x="603.5" y="305" width="40" height="50" as="geometry" />
        </mxCell>
        <mxCell id="1j-_imQ27UeOxcc21rLw-77" value="" style="html=1;dashed=0;whiteSpace=wrap;shape=mxgraph.dfd.dataStoreID;align=left;spacingLeft=3;points=[[0,0],[0.5,0],[1,0],[0,0.5],[1,0.5],[0,1],[0.5,1],[1,1]];" parent="1" vertex="1">
          <mxGeometry x="860" y="365" width="100" height="30" as="geometry" />
        </mxCell>
        <mxCell id="1j-_imQ27UeOxcc21rLw-78" value="Schedule" style="text;html=1;align=left;verticalAlign=middle;whiteSpace=wrap;rounded=0;" parent="1" vertex="1">
          <mxGeometry x="890" y="365" width="70" height="30" as="geometry" />
        </mxCell>
        <mxCell id="1j-_imQ27UeOxcc21rLw-80" value="&lt;font style=&quot;font-size: 11px;&quot;&gt;Employee Schedule&lt;/font&gt;" style="text;html=1;align=center;verticalAlign=middle;whiteSpace=wrap;rounded=0;" parent="1" vertex="1">
          <mxGeometry x="800" y="340" width="50" height="50" as="geometry" />
        </mxCell>
        <mxCell id="1j-_imQ27UeOxcc21rLw-83" style="edgeStyle=orthogonalEdgeStyle;rounded=0;orthogonalLoop=1;jettySize=auto;html=1;exitX=0.5;exitY=1;exitDx=0;exitDy=0;entryX=0;entryY=0.5;entryDx=0;entryDy=0;" parent="1" source="1j-_imQ27UeOxcc21rLw-7" target="1j-_imQ27UeOxcc21rLw-10" edge="1">
          <mxGeometry relative="1" as="geometry" />
        </mxCell>
        <mxCell id="1j-_imQ27UeOxcc21rLw-90" value="&lt;font style=&quot;font-size: 10px;&quot;&gt;Employee ID&lt;/font&gt;" style="text;html=1;align=center;verticalAlign=middle;whiteSpace=wrap;rounded=0;" parent="1" vertex="1">
          <mxGeometry x="277.5" y="310" width="70" height="20" as="geometry" />
        </mxCell>
        <mxCell id="1j-_imQ27UeOxcc21rLw-92" style="edgeStyle=orthogonalEdgeStyle;rounded=0;orthogonalLoop=1;jettySize=auto;html=1;exitX=1;exitY=0;exitDx=0;exitDy=0;entryX=-0.009;entryY=0.354;entryDx=0;entryDy=0;entryPerimeter=0;" parent="1" source="1j-_imQ27UeOxcc21rLw-64" target="1j-_imQ27UeOxcc21rLw-66" edge="1">
          <mxGeometry relative="1" as="geometry">
            <mxPoint x="840" y="250" as="targetPoint" />
            <Array as="points">
              <mxPoint x="840" y="210" />
            </Array>
          </mxGeometry>
        </mxCell>
        <mxCell id="1j-_imQ27UeOxcc21rLw-95" style="edgeStyle=orthogonalEdgeStyle;rounded=0;orthogonalLoop=1;jettySize=auto;html=1;exitX=1.001;exitY=0.936;exitDx=0;exitDy=0;entryX=0.5;entryY=0;entryDx=0;entryDy=0;exitPerimeter=0;" parent="1" source="1j-_imQ27UeOxcc21rLw-5" target="1j-_imQ27UeOxcc21rLw-63" edge="1">
          <mxGeometry relative="1" as="geometry">
            <Array as="points">
              <mxPoint x="640" y="116" />
              <mxPoint x="710" y="116" />
            </Array>
          </mxGeometry>
        </mxCell>
        <mxCell id="1j-_imQ27UeOxcc21rLw-98" style="edgeStyle=orthogonalEdgeStyle;rounded=0;orthogonalLoop=1;jettySize=auto;html=1;exitX=0.934;exitY=-0.003;exitDx=0;exitDy=0;entryX=-0.005;entryY=0.319;entryDx=0;entryDy=0;entryPerimeter=0;exitPerimeter=0;" parent="1" source="1j-_imQ27UeOxcc21rLw-11" target="1j-_imQ27UeOxcc21rLw-75" edge="1">
          <mxGeometry relative="1" as="geometry">
            <Array as="points">
              <mxPoint x="485" y="300" />
              <mxPoint x="580" y="300" />
              <mxPoint x="580" y="384" />
            </Array>
          </mxGeometry>
        </mxCell>
        <mxCell id="1j-_imQ27UeOxcc21rLw-99" value="&lt;font style=&quot;font-size: 11px;&quot;&gt;Employee ID&lt;/font&gt;" style="text;html=1;align=center;verticalAlign=middle;whiteSpace=wrap;rounded=0;" parent="1" vertex="1">
          <mxGeometry x="590" y="395" width="45" height="20" as="geometry" />
        </mxCell>
        <mxCell id="1j-_imQ27UeOxcc21rLw-100" style="edgeStyle=orthogonalEdgeStyle;rounded=0;orthogonalLoop=1;jettySize=auto;html=1;exitX=1;exitY=0.25;exitDx=0;exitDy=0;entryX=0;entryY=0.5;entryDx=0;entryDy=0;" parent="1" source="1j-_imQ27UeOxcc21rLw-75" target="1j-_imQ27UeOxcc21rLw-77" edge="1">
          <mxGeometry relative="1" as="geometry" />
        </mxCell>
        <mxCell id="1j-_imQ27UeOxcc21rLw-102" value="6.0" style="swimlane;fontStyle=0;childLayout=stackLayout;horizontal=1;startSize=30;fillColor=#ffffff;horizontalStack=0;resizeParent=1;resizeParentMax=0;resizeLast=0;collapsible=0;marginBottom=0;swimlaneFillColor=#ffffff;absoluteArcSize=1;arcSize=15;rounded=1;" parent="1" vertex="1">
          <mxGeometry x="645" y="470" width="130" height="90" as="geometry" />
        </mxCell>
        <mxCell id="1j-_imQ27UeOxcc21rLw-103" value="Add/Update&amp;nbsp;&lt;div&gt;Employee&lt;br&gt;Cash Advance&lt;/div&gt;" style="text;html=1;align=center;verticalAlign=middle;whiteSpace=wrap;rounded=0;" parent="1j-_imQ27UeOxcc21rLw-102" vertex="1">
          <mxGeometry y="30" width="130" height="60" as="geometry" />
        </mxCell>
        <mxCell id="1j-_imQ27UeOxcc21rLw-105" style="edgeStyle=orthogonalEdgeStyle;rounded=0;orthogonalLoop=1;jettySize=auto;html=1;entryX=0;entryY=0.25;entryDx=0;entryDy=0;jumpStyle=arc;jumpSize=16;exitX=0.636;exitY=1;exitDx=0;exitDy=0;exitPerimeter=0;" parent="1" source="1j-_imQ27UeOxcc21rLw-5" target="1j-_imQ27UeOxcc21rLw-103" edge="1">
          <mxGeometry relative="1" as="geometry">
            <mxPoint x="570" y="140" as="sourcePoint" />
            <Array as="points">
              <mxPoint x="570" y="515" />
            </Array>
          </mxGeometry>
        </mxCell>
        <mxCell id="1j-_imQ27UeOxcc21rLw-106" value="&lt;font style=&quot;font-size: 10px;&quot;&gt;Employee ID, First Name, Middle Name, Last Name&lt;/font&gt;" style="text;html=1;align=center;verticalAlign=middle;whiteSpace=wrap;rounded=0;" parent="1" vertex="1">
          <mxGeometry x="552" y="545" width="99" height="40" as="geometry" />
        </mxCell>
        <mxCell id="1j-_imQ27UeOxcc21rLw-107" value="&lt;font style=&quot;font-size: 10px;&quot;&gt;Employee ID&lt;/font&gt;" style="text;html=1;align=center;verticalAlign=middle;whiteSpace=wrap;rounded=0;" parent="1" vertex="1">
          <mxGeometry x="601" y="199" width="45" height="20" as="geometry" />
        </mxCell>
        <mxCell id="1j-_imQ27UeOxcc21rLw-109" value="" style="html=1;dashed=0;whiteSpace=wrap;shape=mxgraph.dfd.dataStoreID;align=left;spacingLeft=3;points=[[0,0],[0.5,0],[1,0],[0,0.5],[1,0.5],[0,1],[0.5,1],[1,1]];" parent="1" vertex="1">
          <mxGeometry x="860" y="500" width="100" height="30" as="geometry" />
        </mxCell>
        <mxCell id="1j-_imQ27UeOxcc21rLw-110" value="Cash Advance" style="text;html=1;align=left;verticalAlign=middle;whiteSpace=wrap;rounded=0;" parent="1" vertex="1">
          <mxGeometry x="890" y="500" width="70" height="30" as="geometry" />
        </mxCell>
        <mxCell id="1j-_imQ27UeOxcc21rLw-111" style="edgeStyle=orthogonalEdgeStyle;rounded=0;orthogonalLoop=1;jettySize=auto;html=1;exitX=1;exitY=0.25;exitDx=0;exitDy=0;entryX=0;entryY=0.5;entryDx=0;entryDy=0;" parent="1" source="1j-_imQ27UeOxcc21rLw-103" target="1j-_imQ27UeOxcc21rLw-109" edge="1">
          <mxGeometry relative="1" as="geometry" />
        </mxCell>
        <mxCell id="1j-_imQ27UeOxcc21rLw-112" value="&lt;font style=&quot;font-size: 10px;&quot;&gt;Employee Cash Advance&lt;/font&gt;" style="text;html=1;align=center;verticalAlign=middle;whiteSpace=wrap;rounded=0;" parent="1" vertex="1">
          <mxGeometry x="780" y="510" width="70" height="40" as="geometry" />
        </mxCell>
        <mxCell id="1j-_imQ27UeOxcc21rLw-113" style="edgeStyle=orthogonalEdgeStyle;rounded=0;orthogonalLoop=1;jettySize=auto;html=1;exitX=0.994;exitY=0.207;exitDx=0;exitDy=0;entryX=0.005;entryY=0.687;entryDx=0;entryDy=0;entryPerimeter=0;exitPerimeter=0;" parent="1" source="1j-_imQ27UeOxcc21rLw-11" target="1j-_imQ27UeOxcc21rLw-103" edge="1">
          <mxGeometry relative="1" as="geometry">
            <Array as="points">
              <mxPoint x="560" y="316" />
              <mxPoint x="560" y="541" />
            </Array>
          </mxGeometry>
        </mxCell>
        <mxCell id="1j-_imQ27UeOxcc21rLw-114" value="&lt;font style=&quot;font-size: 10px;&quot;&gt;Employee Cash Advance&lt;/font&gt;&lt;div style=&quot;font-size: 10px;&quot;&gt;&lt;font style=&quot;font-size: 10px;&quot;&gt;Info&lt;/font&gt;&lt;/div&gt;" style="text;html=1;align=center;verticalAlign=middle;whiteSpace=wrap;rounded=0;" parent="1" vertex="1">
          <mxGeometry x="573.5" y="470" width="70" height="50" as="geometry" />
        </mxCell>
        <mxCell id="1j-_imQ27UeOxcc21rLw-116" value="7.0" style="swimlane;fontStyle=0;childLayout=stackLayout;horizontal=1;startSize=30;fillColor=#ffffff;horizontalStack=0;resizeParent=1;resizeParentMax=0;resizeLast=0;collapsible=0;marginBottom=0;swimlaneFillColor=#ffffff;absoluteArcSize=1;arcSize=15;rounded=1;" parent="1" vertex="1">
          <mxGeometry x="320" y="450" width="130" height="90" as="geometry" />
        </mxCell>
        <mxCell id="1j-_imQ27UeOxcc21rLw-117" value="Add/Update&amp;nbsp;&lt;div&gt;Employee&lt;br&gt;Contribution&lt;/div&gt;" style="text;html=1;align=center;verticalAlign=middle;whiteSpace=wrap;rounded=0;" parent="1j-_imQ27UeOxcc21rLw-116" vertex="1">
          <mxGeometry y="30" width="130" height="60" as="geometry" />
        </mxCell>
        <mxCell id="1j-_imQ27UeOxcc21rLw-155" style="edgeStyle=orthogonalEdgeStyle;rounded=0;orthogonalLoop=1;jettySize=auto;html=1;entryX=-0.002;entryY=0.85;entryDx=0;entryDy=0;entryPerimeter=0;jumpStyle=none;" parent="1" source="1j-_imQ27UeOxcc21rLw-118" target="1j-_imQ27UeOxcc21rLw-145" edge="1">
          <mxGeometry relative="1" as="geometry">
            <Array as="points">
              <mxPoint x="100" y="505" />
              <mxPoint x="100" y="711" />
            </Array>
          </mxGeometry>
        </mxCell>
        <mxCell id="1j-_imQ27UeOxcc21rLw-118" value="" style="html=1;dashed=0;whiteSpace=wrap;shape=mxgraph.dfd.dataStoreID;align=left;spacingLeft=3;points=[[0,0],[0.5,0],[1,0],[0,0.5],[1,0.5],[0,1],[0.5,1],[1,1]];" parent="1" vertex="1">
          <mxGeometry x="150" y="490" width="100" height="30" as="geometry" />
        </mxCell>
        <mxCell id="1j-_imQ27UeOxcc21rLw-119" value="contribution" style="text;html=1;align=left;verticalAlign=middle;whiteSpace=wrap;rounded=0;" parent="1" vertex="1">
          <mxGeometry x="180" y="490" width="70" height="30" as="geometry" />
        </mxCell>
        <mxCell id="1j-_imQ27UeOxcc21rLw-123" value="&lt;font style=&quot;font-size: 11px;&quot;&gt;Employee Contribution&lt;/font&gt;&lt;div style=&quot;font-size: 11px;&quot;&gt;&lt;font style=&quot;font-size: 11px;&quot;&gt;Info&lt;/font&gt;&lt;/div&gt;" style="text;html=1;align=center;verticalAlign=middle;whiteSpace=wrap;rounded=0;" parent="1" vertex="1">
          <mxGeometry x="460" y="510" width="40" height="50" as="geometry" />
        </mxCell>
        <mxCell id="1j-_imQ27UeOxcc21rLw-124" style="edgeStyle=orthogonalEdgeStyle;rounded=0;orthogonalLoop=1;jettySize=auto;html=1;entryX=1.057;entryY=0.662;entryDx=0;entryDy=0;entryPerimeter=0;" parent="1" source="1j-_imQ27UeOxcc21rLw-117" target="1j-_imQ27UeOxcc21rLw-119" edge="1">
          <mxGeometry relative="1" as="geometry" />
        </mxCell>
        <mxCell id="1j-_imQ27UeOxcc21rLw-127" value="&lt;font style=&quot;font-size: 11px;&quot;&gt;Employee ID&lt;/font&gt;" style="text;html=1;align=center;verticalAlign=middle;whiteSpace=wrap;rounded=0;" parent="1" vertex="1">
          <mxGeometry x="405" y="425" width="70" height="20" as="geometry" />
        </mxCell>
        <mxCell id="1j-_imQ27UeOxcc21rLw-128" value="&lt;font style=&quot;font-size: 11px;&quot;&gt;Employee Contribution&lt;/font&gt;" style="text;html=1;align=center;verticalAlign=middle;whiteSpace=wrap;rounded=0;" parent="1" vertex="1">
          <mxGeometry x="270" y="510" width="40" height="30" as="geometry" />
        </mxCell>
        <mxCell id="1j-_imQ27UeOxcc21rLw-130" style="edgeStyle=orthogonalEdgeStyle;rounded=0;orthogonalLoop=1;jettySize=auto;html=1;exitX=0.787;exitY=0.996;exitDx=0;exitDy=0;entryX=0;entryY=0.25;entryDx=0;entryDy=0;jumpStyle=arc;jumpSize=16;exitPerimeter=0;" parent="1" source="1j-_imQ27UeOxcc21rLw-5" target="1j-_imQ27UeOxcc21rLw-74" edge="1">
          <mxGeometry relative="1" as="geometry">
            <Array as="points">
              <mxPoint x="595" y="358" />
            </Array>
          </mxGeometry>
        </mxCell>
        <mxCell id="1j-_imQ27UeOxcc21rLw-131" style="edgeStyle=orthogonalEdgeStyle;rounded=0;orthogonalLoop=1;jettySize=auto;html=1;exitX=0.356;exitY=1.016;exitDx=0;exitDy=0;entryX=1;entryY=0.422;entryDx=0;entryDy=0;entryPerimeter=0;jumpStyle=arc;jumpSize=16;exitPerimeter=0;" parent="1" source="1j-_imQ27UeOxcc21rLw-5" target="1j-_imQ27UeOxcc21rLw-117" edge="1">
          <mxGeometry relative="1" as="geometry">
            <Array as="points">
              <mxPoint x="524" y="190" />
              <mxPoint x="500" y="190" />
              <mxPoint x="500" y="505" />
            </Array>
          </mxGeometry>
        </mxCell>
        <mxCell id="1j-_imQ27UeOxcc21rLw-133" value="8.0" style="swimlane;fontStyle=0;childLayout=stackLayout;horizontal=1;startSize=30;fillColor=#ffffff;horizontalStack=0;resizeParent=1;resizeParentMax=0;resizeLast=0;collapsible=0;marginBottom=0;swimlaneFillColor=#ffffff;absoluteArcSize=1;arcSize=15;rounded=1;" parent="1" vertex="1">
          <mxGeometry x="320" y="570" width="130" height="90" as="geometry" />
        </mxCell>
        <mxCell id="1j-_imQ27UeOxcc21rLw-134" value="Add&amp;nbsp;&lt;div&gt;Employee&lt;br&gt;Other Deduction&lt;/div&gt;" style="text;html=1;align=center;verticalAlign=middle;whiteSpace=wrap;rounded=0;" parent="1j-_imQ27UeOxcc21rLw-133" vertex="1">
          <mxGeometry y="30" width="130" height="60" as="geometry" />
        </mxCell>
        <mxCell id="1j-_imQ27UeOxcc21rLw-137" value="&lt;font style=&quot;font-size: 11px;&quot;&gt;Employee ID&lt;/font&gt;" style="text;html=1;align=center;verticalAlign=middle;whiteSpace=wrap;rounded=0;" parent="1" vertex="1">
          <mxGeometry x="450" y="570" width="73" height="20" as="geometry" />
        </mxCell>
        <mxCell id="1j-_imQ27UeOxcc21rLw-138" style="edgeStyle=orthogonalEdgeStyle;rounded=0;orthogonalLoop=1;jettySize=auto;html=1;exitX=0.454;exitY=1.008;exitDx=0;exitDy=0;entryX=1;entryY=0.667;entryDx=0;entryDy=0;entryPerimeter=0;jumpStyle=arc;jumpSize=16;exitPerimeter=0;" parent="1" source="1j-_imQ27UeOxcc21rLw-5" target="1j-_imQ27UeOxcc21rLw-134" edge="1">
          <mxGeometry relative="1" as="geometry">
            <Array as="points">
              <mxPoint x="540" y="640" />
            </Array>
          </mxGeometry>
        </mxCell>
        <mxCell id="1j-_imQ27UeOxcc21rLw-139" value="&lt;font style=&quot;font-size: 11px;&quot;&gt;Employee Other Deduction&lt;/font&gt;&lt;div style=&quot;font-size: 11px;&quot;&gt;&lt;font style=&quot;font-size: 11px;&quot;&gt;Info&lt;/font&gt;&lt;/div&gt;" style="text;html=1;align=center;verticalAlign=middle;whiteSpace=wrap;rounded=0;" parent="1" vertex="1">
          <mxGeometry x="450" y="640" width="90" height="50" as="geometry" />
        </mxCell>
        <mxCell id="1j-_imQ27UeOxcc21rLw-156" style="edgeStyle=orthogonalEdgeStyle;rounded=0;orthogonalLoop=1;jettySize=auto;html=1;exitX=-0.008;exitY=0.859;exitDx=0;exitDy=0;entryX=0;entryY=0.5;entryDx=0;entryDy=0;exitPerimeter=0;" parent="1" source="1j-_imQ27UeOxcc21rLw-140" target="1j-_imQ27UeOxcc21rLw-145" edge="1">
          <mxGeometry relative="1" as="geometry" />
        </mxCell>
        <mxCell id="1j-_imQ27UeOxcc21rLw-140" value="" style="html=1;dashed=0;whiteSpace=wrap;shape=mxgraph.dfd.dataStoreID;align=left;spacingLeft=3;points=[[0,0],[0.5,0],[1,0],[0,0.5],[1,0.5],[0,1],[0.5,1],[1,1]];" parent="1" vertex="1">
          <mxGeometry x="150" y="600" width="100" height="30" as="geometry" />
        </mxCell>
        <mxCell id="1j-_imQ27UeOxcc21rLw-141" value="Other Deduction" style="text;html=1;align=left;verticalAlign=middle;whiteSpace=wrap;rounded=0;" parent="1" vertex="1">
          <mxGeometry x="180" y="600" width="70" height="30" as="geometry" />
        </mxCell>
        <mxCell id="1j-_imQ27UeOxcc21rLw-142" style="edgeStyle=orthogonalEdgeStyle;rounded=0;orthogonalLoop=1;jettySize=auto;html=1;exitX=0;exitY=0.25;exitDx=0;exitDy=0;entryX=1;entryY=0.5;entryDx=0;entryDy=0;" parent="1" source="1j-_imQ27UeOxcc21rLw-134" target="1j-_imQ27UeOxcc21rLw-141" edge="1">
          <mxGeometry relative="1" as="geometry" />
        </mxCell>
        <mxCell id="1j-_imQ27UeOxcc21rLw-143" value="&lt;font style=&quot;font-size: 11px;&quot;&gt;Employee Other Deduction&lt;/font&gt;&lt;div style=&quot;font-size: 11px;&quot;&gt;&lt;br&gt;&lt;/div&gt;" style="text;html=1;align=center;verticalAlign=middle;whiteSpace=wrap;rounded=0;" parent="1" vertex="1">
          <mxGeometry x="231" y="629" width="90" height="50" as="geometry" />
        </mxCell>
        <mxCell id="1j-_imQ27UeOxcc21rLw-144" value="9..0" style="swimlane;fontStyle=0;childLayout=stackLayout;horizontal=1;startSize=30;fillColor=#ffffff;horizontalStack=0;resizeParent=1;resizeParentMax=0;resizeLast=0;collapsible=0;marginBottom=0;swimlaneFillColor=#ffffff;absoluteArcSize=1;arcSize=15;rounded=1;" parent="1" vertex="1">
          <mxGeometry x="646" y="630" width="130" height="90" as="geometry" />
        </mxCell>
        <mxCell id="1j-_imQ27UeOxcc21rLw-145" value="Generate Payslip" style="text;html=1;align=center;verticalAlign=middle;whiteSpace=wrap;rounded=0;" parent="1j-_imQ27UeOxcc21rLw-144" vertex="1">
          <mxGeometry y="30" width="130" height="60" as="geometry" />
        </mxCell>
        <mxCell id="1j-_imQ27UeOxcc21rLw-147" style="edgeStyle=orthogonalEdgeStyle;rounded=0;orthogonalLoop=1;jettySize=auto;html=1;exitX=0.75;exitY=1;exitDx=0;exitDy=0;entryX=-0.002;entryY=0.154;entryDx=0;entryDy=0;entryPerimeter=0;jumpStyle=arc;jumpSize=16;" parent="1" source="1j-_imQ27UeOxcc21rLw-11" target="1j-_imQ27UeOxcc21rLw-144" edge="1">
          <mxGeometry relative="1" as="geometry">
            <Array as="points">
              <mxPoint x="480" y="340" />
              <mxPoint x="480" y="360" />
              <mxPoint x="550" y="360" />
              <mxPoint x="550" y="644" />
            </Array>
          </mxGeometry>
        </mxCell>
        <mxCell id="1j-_imQ27UeOxcc21rLw-148" value="&lt;font style=&quot;font-size: 11px;&quot;&gt;Employee ID&lt;/font&gt;" style="text;html=1;align=center;verticalAlign=middle;whiteSpace=wrap;rounded=0;" parent="1" vertex="1">
          <mxGeometry x="570" y="620" width="45" height="20" as="geometry" />
        </mxCell>
        <mxCell id="1j-_imQ27UeOxcc21rLw-150" style="edgeStyle=orthogonalEdgeStyle;rounded=0;orthogonalLoop=1;jettySize=auto;html=1;exitX=1;exitY=0.5;exitDx=0;exitDy=0;entryX=0.569;entryY=0;entryDx=0;entryDy=0;entryPerimeter=0;" parent="1" source="1j-_imQ27UeOxcc21rLw-110" target="1j-_imQ27UeOxcc21rLw-144" edge="1">
          <mxGeometry relative="1" as="geometry">
            <mxPoint x="720" y="620" as="targetPoint" />
            <Array as="points">
              <mxPoint x="970" y="515" />
              <mxPoint x="970" y="600" />
              <mxPoint x="720" y="600" />
            </Array>
          </mxGeometry>
        </mxCell>
        <mxCell id="1j-_imQ27UeOxcc21rLw-154" style="edgeStyle=orthogonalEdgeStyle;rounded=0;orthogonalLoop=1;jettySize=auto;html=1;exitX=1;exitY=0.5;exitDx=0;exitDy=0;entryX=1.003;entryY=0.194;entryDx=0;entryDy=0;entryPerimeter=0;jumpStyle=arc;jumpSize=16;" parent="1" source="1j-_imQ27UeOxcc21rLw-67" target="1j-_imQ27UeOxcc21rLw-144" edge="1">
          <mxGeometry relative="1" as="geometry">
            <Array as="points">
              <mxPoint x="1030" y="215" />
              <mxPoint x="1030" y="648" />
            </Array>
          </mxGeometry>
        </mxCell>
        <mxCell id="1j-_imQ27UeOxcc21rLw-157" value="" style="html=1;dashed=0;whiteSpace=wrap;shape=mxgraph.dfd.dataStoreID;align=left;spacingLeft=3;points=[[0,0],[0.5,0],[1,0],[0,0.5],[1,0.5],[0,1],[0.5,1],[1,1]];" parent="1" vertex="1">
          <mxGeometry x="661" y="790" width="100" height="30" as="geometry" />
        </mxCell>
        <mxCell id="1j-_imQ27UeOxcc21rLw-158" value="Payslip" style="text;html=1;align=left;verticalAlign=middle;whiteSpace=wrap;rounded=0;" parent="1" vertex="1">
          <mxGeometry x="691" y="790" width="70" height="30" as="geometry" />
        </mxCell>
        <mxCell id="1j-_imQ27UeOxcc21rLw-163" style="edgeStyle=orthogonalEdgeStyle;rounded=0;orthogonalLoop=1;jettySize=auto;html=1;exitX=0;exitY=0.5;exitDx=0;exitDy=0;entryX=1.007;entryY=0.57;entryDx=0;entryDy=0;entryPerimeter=0;" parent="1" source="1j-_imQ27UeOxcc21rLw-160" target="1j-_imQ27UeOxcc21rLw-145" edge="1">
          <mxGeometry relative="1" as="geometry">
            <mxPoint x="789.9999999999998" y="693.8421052631579" as="targetPoint" />
          </mxGeometry>
        </mxCell>
        <mxCell id="1j-_imQ27UeOxcc21rLw-160" value="" style="html=1;dashed=0;whiteSpace=wrap;shape=mxgraph.dfd.dataStoreID;align=left;spacingLeft=3;points=[[0,0],[0.5,0],[1,0],[0,0.5],[1,0.5],[0,1],[0.5,1],[1,1]];" parent="1" vertex="1">
          <mxGeometry x="900" y="679" width="100" height="30" as="geometry" />
        </mxCell>
        <mxCell id="1j-_imQ27UeOxcc21rLw-183" style="edgeStyle=orthogonalEdgeStyle;rounded=0;orthogonalLoop=1;jettySize=auto;html=1;exitX=1;exitY=0.5;exitDx=0;exitDy=0;entryX=1;entryY=0.5;entryDx=0;entryDy=0;" parent="1" source="1j-_imQ27UeOxcc21rLw-161" target="1j-_imQ27UeOxcc21rLw-5" edge="1">
          <mxGeometry relative="1" as="geometry">
            <mxPoint x="680" y="90" as="targetPoint" />
            <Array as="points">
              <mxPoint x="1050" y="694" />
              <mxPoint x="1050" y="90" />
            </Array>
          </mxGeometry>
        </mxCell>
        <mxCell id="1j-_imQ27UeOxcc21rLw-161" value="Attendance" style="text;html=1;align=left;verticalAlign=middle;whiteSpace=wrap;rounded=0;" parent="1" vertex="1">
          <mxGeometry x="930" y="679" width="70" height="30" as="geometry" />
        </mxCell>
        <mxCell id="1j-_imQ27UeOxcc21rLw-164" style="edgeStyle=orthogonalEdgeStyle;rounded=0;orthogonalLoop=1;jettySize=auto;html=1;exitX=0.5;exitY=1;exitDx=0;exitDy=0;entryX=0.288;entryY=-0.044;entryDx=0;entryDy=0;entryPerimeter=0;" parent="1" source="1j-_imQ27UeOxcc21rLw-145" target="1j-_imQ27UeOxcc21rLw-158" edge="1">
          <mxGeometry relative="1" as="geometry">
            <mxPoint x="710.7407407407406" y="780" as="targetPoint" />
          </mxGeometry>
        </mxCell>
        <mxCell id="1j-_imQ27UeOxcc21rLw-165" value="10.0" style="swimlane;fontStyle=0;childLayout=stackLayout;horizontal=1;startSize=30;fillColor=#ffffff;horizontalStack=0;resizeParent=1;resizeParentMax=0;resizeLast=0;collapsible=0;marginBottom=0;swimlaneFillColor=#ffffff;absoluteArcSize=1;arcSize=15;rounded=1;" parent="1" vertex="1">
          <mxGeometry x="410" y="740" width="130" height="90" as="geometry" />
        </mxCell>
        <mxCell id="1j-_imQ27UeOxcc21rLw-166" value="Generate Payroll&lt;br&gt;Report" style="text;html=1;align=center;verticalAlign=middle;whiteSpace=wrap;rounded=0;" parent="1j-_imQ27UeOxcc21rLw-165" vertex="1">
          <mxGeometry y="30" width="130" height="60" as="geometry" />
        </mxCell>
        <mxCell id="1j-_imQ27UeOxcc21rLw-167" style="edgeStyle=orthogonalEdgeStyle;rounded=0;orthogonalLoop=1;jettySize=auto;html=1;exitX=0;exitY=0.5;exitDx=0;exitDy=0;" parent="1" source="1j-_imQ27UeOxcc21rLw-157" edge="1">
          <mxGeometry relative="1" as="geometry">
            <mxPoint x="540" y="805" as="targetPoint" />
          </mxGeometry>
        </mxCell>
        <mxCell id="1j-_imQ27UeOxcc21rLw-173" value="" style="html=1;dashed=0;whiteSpace=wrap;shape=mxgraph.dfd.dataStoreID;align=left;spacingLeft=3;points=[[0,0],[0.5,0],[1,0],[0,0.5],[1,0.5],[0,1],[0.5,1],[1,1]];" parent="1" vertex="1">
          <mxGeometry x="210" y="803" width="100" height="30" as="geometry" />
        </mxCell>
        <mxCell id="1j-_imQ27UeOxcc21rLw-174" value="Payroll Report" style="text;html=1;align=left;verticalAlign=middle;whiteSpace=wrap;rounded=0;" parent="1" vertex="1">
          <mxGeometry x="240" y="803" width="70" height="30" as="geometry" />
        </mxCell>
        <mxCell id="1j-_imQ27UeOxcc21rLw-191" value="&lt;span style=&quot;font-size: 11px;&quot;&gt;Contributions&lt;/span&gt;" style="text;html=1;align=center;verticalAlign=middle;whiteSpace=wrap;rounded=0;" parent="1" vertex="1">
          <mxGeometry x="572.5" y="712" width="62.5" height="20" as="geometry" />
        </mxCell>
        <mxCell id="1j-_imQ27UeOxcc21rLw-192" value="&lt;span style=&quot;font-size: 11px;&quot;&gt;Deductions&lt;/span&gt;" style="text;html=1;align=center;verticalAlign=middle;whiteSpace=wrap;rounded=0;" parent="1" vertex="1">
          <mxGeometry x="572.5" y="670" width="62.5" height="20" as="geometry" />
        </mxCell>
        <mxCell id="1j-_imQ27UeOxcc21rLw-194" value="&lt;span style=&quot;font-size: 11px;&quot;&gt;Time In,&amp;nbsp; Time Out, Date&lt;/span&gt;" style="text;html=1;align=center;verticalAlign=middle;whiteSpace=wrap;rounded=0;" parent="1" vertex="1">
          <mxGeometry x="777.5" y="700" width="112.5" height="20" as="geometry" />
        </mxCell>
        <mxCell id="1j-_imQ27UeOxcc21rLw-195" value="&lt;span style=&quot;font-size: 11px;&quot;&gt;Basic Salary, and Teaching Load Salary&lt;/span&gt;" style="text;html=1;align=center;verticalAlign=middle;whiteSpace=wrap;rounded=0;" parent="1" vertex="1">
          <mxGeometry x="787" y="629" width="210" height="20" as="geometry" />
        </mxCell>
        <mxCell id="1j-_imQ27UeOxcc21rLw-196" value="&lt;font style=&quot;font-size: 10px;&quot;&gt;Cash Advance Amount&lt;/font&gt;" style="text;html=1;align=center;verticalAlign=middle;whiteSpace=wrap;rounded=0;" parent="1" vertex="1">
          <mxGeometry x="710" y="580" width="122.5" height="20" as="geometry" />
        </mxCell>
        <mxCell id="1j-_imQ27UeOxcc21rLw-197" value="&lt;span style=&quot;font-size: 11px;&quot;&gt;Department, Position,&lt;/span&gt;" style="text;html=1;align=center;verticalAlign=middle;whiteSpace=wrap;rounded=0;" parent="1" vertex="1">
          <mxGeometry x="787" y="610" width="122.5" height="20" as="geometry" />
        </mxCell>
        <mxCell id="1j-_imQ27UeOxcc21rLw-199" value="&lt;font style=&quot;font-size: 10px;&quot;&gt;Day Attendance Count&lt;/font&gt;" style="text;html=1;align=center;verticalAlign=middle;whiteSpace=wrap;rounded=0;" parent="1" vertex="1">
          <mxGeometry x="630" y="69" width="130.5" height="21" as="geometry" />
        </mxCell>
        <mxCell id="1j-_imQ27UeOxcc21rLw-201" value="3.0" style="swimlane;fontStyle=0;childLayout=stackLayout;horizontal=1;startSize=30;fillColor=#ffffff;horizontalStack=0;resizeParent=1;resizeParentMax=0;resizeLast=0;collapsible=0;marginBottom=0;swimlaneFillColor=#ffffff;absoluteArcSize=1;arcSize=15;rounded=1;" parent="1" vertex="1">
          <mxGeometry x="171" y="280" width="100" height="80" as="geometry" />
        </mxCell>
        <mxCell id="1j-_imQ27UeOxcc21rLw-202" value="Add/Update&amp;nbsp;&lt;div&gt;Employee RFID&lt;/div&gt;" style="text;html=1;align=center;verticalAlign=middle;whiteSpace=wrap;rounded=0;" parent="1j-_imQ27UeOxcc21rLw-201" vertex="1">
          <mxGeometry y="30" width="100" height="50" as="geometry" />
        </mxCell>
        <mxCell id="1j-_imQ27UeOxcc21rLw-203" style="edgeStyle=orthogonalEdgeStyle;rounded=0;orthogonalLoop=1;jettySize=auto;html=1;exitX=0;exitY=0.25;exitDx=0;exitDy=0;entryX=0.293;entryY=-0.033;entryDx=0;entryDy=0;entryPerimeter=0;" parent="1" source="1j-_imQ27UeOxcc21rLw-7" target="1j-_imQ27UeOxcc21rLw-201" edge="1">
          <mxGeometry relative="1" as="geometry" />
        </mxCell>
        <mxCell id="1j-_imQ27UeOxcc21rLw-204" style="edgeStyle=orthogonalEdgeStyle;rounded=0;orthogonalLoop=1;jettySize=auto;html=1;exitX=0;exitY=1;exitDx=0;exitDy=0;entryX=1.001;entryY=0.404;entryDx=0;entryDy=0;entryPerimeter=0;" parent="1" source="1j-_imQ27UeOxcc21rLw-10" target="1j-_imQ27UeOxcc21rLw-202" edge="1">
          <mxGeometry relative="1" as="geometry">
            <mxPoint x="330" y="330" as="targetPoint" />
            <Array as="points">
              <mxPoint x="390" y="330" />
            </Array>
          </mxGeometry>
        </mxCell>
        <mxCell id="1j-_imQ27UeOxcc21rLw-205" style="edgeStyle=orthogonalEdgeStyle;rounded=0;orthogonalLoop=1;jettySize=auto;html=1;exitX=0.5;exitY=1;exitDx=0;exitDy=0;entryX=0.152;entryY=0.022;entryDx=0;entryDy=0;entryPerimeter=0;" parent="1" source="1j-_imQ27UeOxcc21rLw-202" target="1j-_imQ27UeOxcc21rLw-24" edge="1">
          <mxGeometry relative="1" as="geometry" />
        </mxCell>
        <mxCell id="1j-_imQ27UeOxcc21rLw-207" value="&lt;font style=&quot;font-size: 10px;&quot;&gt;Employee RFID,&lt;/font&gt;&lt;div style=&quot;font-size: 10px;&quot;&gt;&lt;font style=&quot;font-size: 10px;&quot;&gt;&lt;font style=&quot;font-size: 10px;&quot;&gt;Employee ID&lt;/font&gt;&lt;br&gt;&lt;/font&gt;&lt;/div&gt;" style="text;html=1;align=left;verticalAlign=middle;whiteSpace=wrap;rounded=0;" parent="1" vertex="1">
          <mxGeometry x="223" y="365" width="100" height="30" as="geometry" />
        </mxCell>
        <mxCell id="1j-_imQ27UeOxcc21rLw-218" value="&lt;font style=&quot;font-size: 10px;&quot;&gt;Payslip&lt;br&gt;Details&lt;/font&gt;" style="text;html=1;align=center;verticalAlign=middle;whiteSpace=wrap;rounded=0;" parent="1" vertex="1">
          <mxGeometry x="698.5" y="750" width="62.5" height="18" as="geometry" />
        </mxCell>
        <mxCell id="1j-_imQ27UeOxcc21rLw-219" value="&lt;font style=&quot;font-size: 10px;&quot;&gt;Payslip Record&lt;/font&gt;" style="text;html=1;align=center;verticalAlign=middle;whiteSpace=wrap;rounded=0;" parent="1" vertex="1">
          <mxGeometry x="548.13" y="785" width="88.75" height="18" as="geometry" />
        </mxCell>
        <mxCell id="1j-_imQ27UeOxcc21rLw-221" style="edgeStyle=orthogonalEdgeStyle;rounded=0;orthogonalLoop=1;jettySize=auto;html=1;exitX=0;exitY=0.75;exitDx=0;exitDy=0;entryX=1.001;entryY=0.42;entryDx=0;entryDy=0;entryPerimeter=0;" parent="1" source="1j-_imQ27UeOxcc21rLw-166" target="1j-_imQ27UeOxcc21rLw-174" edge="1">
          <mxGeometry relative="1" as="geometry" />
        </mxCell>
        <mxCell id="1j-_imQ27UeOxcc21rLw-222" value="&lt;span style=&quot;color: rgb(0, 0, 0); font-family: Helvetica; font-size: 10px; font-style: normal; font-variant-ligatures: normal; font-variant-caps: normal; font-weight: 400; letter-spacing: normal; orphans: 2; text-align: center; text-indent: 0px; text-transform: none; widows: 2; word-spacing: 0px; -webkit-text-stroke-width: 0px; white-space: normal; background-color: rgb(251, 251, 251); text-decoration-thickness: initial; text-decoration-style: initial; text-decoration-color: initial; display: inline !important; float: none;&quot;&gt;Payroll Report&amp;nbsp;&lt;/span&gt;&lt;span style=&quot;color: rgb(0, 0, 0); font-family: Helvetica; font-size: 10px; font-style: normal; font-variant-ligatures: normal; font-variant-caps: normal; font-weight: 400; letter-spacing: normal; orphans: 2; text-align: center; text-indent: 0px; text-transform: none; widows: 2; word-spacing: 0px; -webkit-text-stroke-width: 0px; white-space: normal; background-color: rgb(251, 251, 251); text-decoration-thickness: initial; text-decoration-style: initial; text-decoration-color: initial; display: inline !important; float: none;&quot;&gt;Details&lt;/span&gt;" style="text;whiteSpace=wrap;html=1;" parent="1" vertex="1">
          <mxGeometry x="323" y="781" width="79" height="20" as="geometry" />
        </mxCell>
        <mxCell id="1j-_imQ27UeOxcc21rLw-223" value="Admin" style="whiteSpace=wrap;html=1;aspect=fixed;" parent="1" vertex="1">
          <mxGeometry x="100" y="732" width="80" height="80" as="geometry" />
        </mxCell>
        <mxCell id="1j-_imQ27UeOxcc21rLw-224" style="edgeStyle=orthogonalEdgeStyle;rounded=0;orthogonalLoop=1;jettySize=auto;html=1;exitX=0;exitY=0.25;exitDx=0;exitDy=0;entryX=1;entryY=0.659;entryDx=0;entryDy=0;entryPerimeter=0;" parent="1" source="1j-_imQ27UeOxcc21rLw-166" target="1j-_imQ27UeOxcc21rLw-223" edge="1">
          <mxGeometry relative="1" as="geometry" />
        </mxCell>
        <mxCell id="1j-_imQ27UeOxcc21rLw-225" value="&lt;span style=&quot;color: rgb(0, 0, 0); font-family: Helvetica; font-size: 10px; font-style: normal; font-variant-ligatures: normal; font-variant-caps: normal; font-weight: 400; letter-spacing: normal; orphans: 2; text-align: center; text-indent: 0px; text-transform: none; widows: 2; word-spacing: 0px; -webkit-text-stroke-width: 0px; white-space: normal; background-color: rgb(251, 251, 251); text-decoration-thickness: initial; text-decoration-style: initial; text-decoration-color: initial; display: inline !important; float: none;&quot;&gt;Payroll&amp;nbsp;&lt;/span&gt;&lt;span style=&quot;color: rgb(0, 0, 0); font-family: Helvetica; font-size: 10px; font-style: normal; font-variant-ligatures: normal; font-variant-caps: normal; font-weight: 400; letter-spacing: normal; orphans: 2; text-align: center; text-indent: 0px; text-transform: none; widows: 2; word-spacing: 0px; -webkit-text-stroke-width: 0px; white-space: normal; background-color: rgb(251, 251, 251); text-decoration-thickness: initial; text-decoration-style: initial; text-decoration-color: initial; display: inline !important; float: none;&quot;&gt;Reports&lt;/span&gt;" style="text;whiteSpace=wrap;html=1;" parent="1" vertex="1">
          <mxGeometry x="194" y="762" width="79" height="20" as="geometry" />
        </mxCell>
        <mxCell id="1j-_imQ27UeOxcc21rLw-228" value="&lt;font style=&quot;font-size: 10px;&quot;&gt;Employee Registered Count&lt;/font&gt;" style="text;html=1;align=center;verticalAlign=middle;whiteSpace=wrap;rounded=0;" parent="1" vertex="1">
          <mxGeometry x="347.5" y="80" width="95" height="20" as="geometry" />
        </mxCell>
      </root>
    </mxGraphModel>
  </diagram>
</mxfile>
